<?xml version="1.0" standalone="no"?>
<!DOCTYPE svg PUBLIC "-//W3C//DTD SVG 20010904//EN"
 "http://www.w3.org/TR/2001/REC-SVG-20010904/DTD/svg10.dtd">
<svg version="1.0" xmlns="http://www.w3.org/2000/svg"
 width="500.000000pt" height="500.000000pt" viewBox="0 0 500.000000 500.000000"
 preserveAspectRatio="xMidYMid meet">

<g transform="translate(0.000000,500.000000) scale(0.100000,-0.100000)"
fill="#000000" stroke="none">
<path d="M1670 2550 l0 -1170 830 0 830 0 0 1170 0 1170 -830 0 -830 0 0
-1170z m670 380 l0 -300 -105 0 -105 0 0 293 c0 162 3 297 7 300 3 4 51 7 105
7 l98 0 0 -300z m268 -53 l2 -248 -107 3 -108 3 -3 234 c-2 167 1 238 9 248 9
10 35 13 108 11 l96 -3 3 -248z m262 -52 l0 -195 -105 0 -105 0 0 188 c0 104
3 192 7 195 3 4 51 7 105 7 l98 0 0 -195z m-760 -505 c13 -13 20 -33 20 -60 0
-49 -27 -80 -70 -80 l-30 0 0 -70 c0 -68 -1 -70 -25 -70 l-25 0 0 150 0 150
55 0 c42 0 60 -5 75 -20z m216 -1 c16 -18 19 -37 19 -129 0 -129 -11 -150 -80
-150 -69 0 -80 21 -80 150 0 129 11 150 80 150 30 0 47 -6 61 -21z m204 1 c26
-26 26 -60 1 -60 -12 0 -21 9 -25 25 -7 27 -34 33 -54 13 -21 -21 -13 -38 34
-81 72 -65 86 -113 46 -159 -36 -42 -122 -8 -122 47 0 35 26 32 39 -5 11 -32
37 -40 59 -18 21 21 13 38 -43 97 -60 63 -72 106 -38 143 22 24 77 24 103 -2z
m210 5 c0 -9 -9 -15 -25 -15 l-25 0 0 -135 c0 -128 -1 -135 -20 -135 -19 0
-20 7 -20 135 l0 135 -25 0 c-16 0 -25 6 -25 15 0 12 14 15 70 15 56 0 70 -3
70 -15z m100 -135 c0 -143 -1 -150 -20 -150 -19 0 -20 7 -20 150 0 143 1 150
20 150 19 0 20 -7 20 -150z m190 135 c0 -8 -9 -15 -20 -15 -19 0 -20 -7 -20
-135 l0 -135 -25 0 -25 0 0 135 0 135 -25 0 c-16 0 -25 6 -25 15 0 12 14 15
70 15 56 0 70 -3 70 -15z"/>
<path d="M2170 2930 l0 -260 65 0 65 0 0 260 0 260 -65 0 -65 0 0 -260z"/>
<path d="M2440 2880 l0 -210 65 0 65 0 0 210 0 210 -65 0 -65 0 0 -210z"/>
<path d="M2700 2825 l0 -155 65 0 65 0 0 155 0 155 -65 0 -65 0 0 -155z"/>
<path d="M2030 2260 c0 -51 7 -58 44 -44 11 4 16 19 16 44 0 25 -5 40 -16 44
-37 14 -44 7 -44 -44z"/>
<path d="M2235 2297 c-3 -7 -4 -60 -3 -118 l3 -104 30 0 30 0 0 115 0 115 -28
3 c-16 2 -29 -2 -32 -11z"/>
</g>
</svg>
